<svg width="23" height="28" viewBox="0 0 23 28" fill="none" xmlns="http://www.w3.org/2000/svg">
<path fill-rule="evenodd" clip-rule="evenodd" d="M12.6917 2.16515C13.7293 0.94987 15.4652 0.0591134 16.9123 0.000176392C17.0311 -0.00450552 17.1365 0.0845426 17.1498 0.204436C17.3176 1.73441 16.7628 3.44248 15.6657 4.77343C14.6233 6.03387 13.0969 6.81667 11.6819 6.81667C11.5826 6.81658 11.4829 6.81272 11.3852 6.8051C11.2772 6.79675 11.1898 6.71385 11.1755 6.60644C10.9486 4.88974 11.81 3.18663 12.6917 2.16515ZM2.93619 24.4145C0.318543 20.6349 -1.18628 14.4012 1.18084 10.2935C2.42568 8.12846 4.68364 6.76135 7.07325 6.72619C7.09703 6.72573 7.12117 6.72545 7.14569 6.72545C8.17341 6.72545 9.14422 7.11065 10.0007 7.4506L10.0015 7.45088C10.6417 7.70487 11.1945 7.9242 11.6206 7.9242C11.9999 7.9242 12.5499 7.70737 13.1866 7.45629C14.1091 7.09257 15.2572 6.63989 16.4558 6.63989C16.6093 6.63989 16.7621 6.64733 16.9102 6.66211C17.9307 6.70599 20.4654 7.07072 22.1191 9.49081C22.154 9.54185 22.1668 9.60501 22.1545 9.66569C22.1422 9.72646 22.1059 9.77962 22.0539 9.81313L22.0315 9.82708C21.551 10.1243 19.1552 11.7644 19.1859 14.8614C19.219 18.6734 22.3717 20.072 22.7311 20.219C22.7319 20.2193 22.7331 20.2198 22.7345 20.2204C22.739 20.2223 22.7457 20.2251 22.7479 20.2262C22.8545 20.2751 22.907 20.3964 22.8698 20.5076L22.8619 20.5325C22.6667 21.158 22.088 22.795 20.9343 24.4809L20.9341 24.4812C19.8286 26.0958 18.5755 27.926 16.5347 27.964C15.5833 27.9818 14.9387 27.7029 14.3135 27.4324L14.3082 27.4301L14.3078 27.43C13.6719 27.1548 13.0143 26.8702 11.9839 26.8702C10.9007 26.8702 10.21 27.1645 9.54227 27.4491L9.54155 27.4494C8.94699 27.7026 8.33197 27.9644 7.48104 27.9984C7.44597 27.9998 7.41173 28.0004 7.37758 28.0004C5.56568 28.0004 4.24281 26.3042 2.93619 24.4145Z" fill="#000002"/>
</svg>
